# xmcd
#
# Track frame offsets:
#  183
#  18095
#  35820
#  54338
#  71598
#  88193
#  105905
#  123780
#  143970
#  161883
#  181110
#  194190
#  212783
#  226603
#  243545
#  270278
#  287198
#
# Disc length: 4063 seconds
#
# Revision: 3
# Processed by: cddbd v1.5.1PL0 Copyright (c) Steve Scherf et al.
# Submitted via: Collectorz.com Music Collector 6.9
#
DISCID=ef0fdd11
DTITLE=Various Artist - Lady Love
DYEAR=1991
DGENRE=Pop
TTITLE0=Lou Rawls - Lady Love
TTITLE1=Rose Royce - Wishing On A Star
TTITLE2=Ray, Goodman and Brown - Special Lady
TTITLE3=Billy Ocean - Suddenly
TTITLE4=Jimmy Helms - Gonna Maken You An Offer You Can't Refuse
TTITLE5=J. Blackfoot - Taxi
TTITLE6=L.T.D. - Shine On
TTITLE7=Earth, Wind and Fire - After The Love Has Gone
TTITLE8=Barry White - Never Never Gonna Give You Up
TTITLE9=Fat Larry's Band - Zoom
TTITLE10=Johnny Mathis and Deniece Williams - Too Much Too Little Too Late
TTITLE11=Randy Crawford - Rainy Night In Georgia
TTITLE12=Joyce Kennedy and Jeffrey Osborne - The Last Time I Made Love
TTITLE13=The Night People - Again
TTITLE14=Deniece Williams - Free
TTITLE15=Kool and The Gang - Cherish
TTITLE16=Donna Summer - The Woman In Me
EXTD=
EXTT0=
EXTT1=
EXTT2=
EXTT3=
EXTT4=
EXTT5=
EXTT6=
EXTT7=
EXTT8=
EXTT9=
EXTT10=
EXTT11=
EXTT12=
EXTT13=
EXTT14=
EXTT15=
EXTT16=
PLAYORDER=
